<svg xmlns="http://www.w3.org/2000/svg" xmlns:xlink="http://www.w3.org/1999/xlink" width="100" zoomAndPan="magnify" viewBox="0 0 75 74.999997" height="100" preserveAspectRatio="xMidYMid meet" version="1.0"><defs><clipPath id="68d15ac148"><path d="M 2.308594 30.289062 L 72.722656 30.289062 L 72.722656 48.890625 L 2.308594 48.890625 Z M 2.308594 30.289062 " clip-rule="nonzero"/></clipPath><clipPath id="6b7a5a487c"><path d="M 64.417969 30.289062 C 68.988281 30.289062 72.691406 34.453125 72.691406 39.589844 C 72.691406 44.726562 68.988281 48.890625 64.417969 48.890625 L 10.582031 48.890625 C 6.011719 48.890625 2.308594 44.726562 2.308594 39.589844 C 2.308594 34.453125 6.011719 30.289062 10.582031 30.289062 Z M 64.417969 30.289062 " clip-rule="nonzero"/></clipPath><clipPath id="22906d46f2"><path d="M 0.308594 0.289062 L 70.71875 0.289062 L 70.71875 18.890625 L 0.308594 18.890625 Z M 0.308594 0.289062 " clip-rule="nonzero"/></clipPath><clipPath id="a61d1a6ef2"><path d="M 62.417969 0.289062 C 66.988281 0.289062 70.691406 4.453125 70.691406 9.589844 C 70.691406 14.726562 66.988281 18.890625 62.417969 18.890625 L 8.582031 18.890625 C 4.011719 18.890625 0.308594 14.726562 0.308594 9.589844 C 0.308594 4.453125 4.011719 0.289062 8.582031 0.289062 Z M 62.417969 0.289062 " clip-rule="nonzero"/></clipPath><clipPath id="a2babe1a1c"><rect x="0" width="71" y="0" height="19"/></clipPath><clipPath id="f223ad8b73"><path d="M 13.429688 42.300781 L 26.378906 42.300781 L 26.378906 55.503906 L 13.429688 55.503906 Z M 13.429688 42.300781 " clip-rule="nonzero"/></clipPath><clipPath id="41ea590f60"><path d="M 19.902344 42.300781 C 16.328125 42.300781 13.429688 45.25 13.429688 48.890625 C 13.429688 52.53125 16.328125 55.480469 19.902344 55.480469 C 23.480469 55.480469 26.378906 52.53125 26.378906 48.890625 C 26.378906 45.25 23.480469 42.300781 19.902344 42.300781 Z M 19.902344 42.300781 " clip-rule="nonzero"/></clipPath><clipPath id="c174d28f91"><path d="M 0.429688 0.300781 L 13.378906 0.300781 L 13.378906 13.503906 L 0.429688 13.503906 Z M 0.429688 0.300781 " clip-rule="nonzero"/></clipPath><clipPath id="e1a7772021"><path d="M 6.902344 0.300781 C 3.328125 0.300781 0.429688 3.25 0.429688 6.890625 C 0.429688 10.53125 3.328125 13.480469 6.902344 13.480469 C 10.480469 13.480469 13.378906 10.53125 13.378906 6.890625 C 13.378906 3.25 10.480469 0.300781 6.902344 0.300781 Z M 6.902344 0.300781 " clip-rule="nonzero"/></clipPath><clipPath id="26c025b98c"><rect x="0" width="14" y="0" height="14"/></clipPath><clipPath id="4757f7bbd5"><path d="M 50.65625 42.300781 L 63.609375 42.300781 L 63.609375 55.503906 L 50.65625 55.503906 Z M 50.65625 42.300781 " clip-rule="nonzero"/></clipPath><clipPath id="3e6b30c5dc"><path d="M 57.132812 42.300781 C 53.554688 42.300781 50.65625 45.25 50.65625 48.890625 C 50.65625 52.53125 53.554688 55.480469 57.132812 55.480469 C 60.707031 55.480469 63.609375 52.53125 63.609375 48.890625 C 63.609375 45.25 60.707031 42.300781 57.132812 42.300781 Z M 57.132812 42.300781 " clip-rule="nonzero"/></clipPath><clipPath id="e561743f0c"><path d="M 0.65625 0.300781 L 13.609375 0.300781 L 13.609375 13.503906 L 0.65625 13.503906 Z M 0.65625 0.300781 " clip-rule="nonzero"/></clipPath><clipPath id="d34fc6db79"><path d="M 7.132812 0.300781 C 3.554688 0.300781 0.65625 3.25 0.65625 6.890625 C 0.65625 10.53125 3.554688 13.480469 7.132812 13.480469 C 10.707031 13.480469 13.609375 10.53125 13.609375 6.890625 C 13.609375 3.25 10.707031 0.300781 7.132812 0.300781 Z M 7.132812 0.300781 " clip-rule="nonzero"/></clipPath><clipPath id="16cb6e117a"><rect x="0" width="14" y="0" height="14"/></clipPath><clipPath id="6aeb37c16a"><path d="M 14 20 L 51 20 L 51 41 L 14 41 Z M 14 20 " clip-rule="nonzero"/></clipPath><clipPath id="5f41cc2182"><path d="M 14.09375 23.171875 L 49.65625 19.515625 L 51.558594 38.019531 L 15.996094 41.675781 Z M 14.09375 23.171875 " clip-rule="nonzero"/></clipPath><clipPath id="adc6be0bda"><path d="M 41.382812 20.363281 C 45.929688 19.898438 50.039062 23.660156 50.5625 28.769531 C 51.089844 33.882812 47.832031 38.402344 43.285156 38.871094 L 24.222656 40.828125 C 19.679688 41.296875 15.570312 37.53125 15.042969 32.421875 C 14.519531 27.3125 17.777344 22.792969 22.320312 22.324219 Z M 41.382812 20.363281 " clip-rule="nonzero"/></clipPath><clipPath id="a1e712b194"><path d="M 0.398438 0 L 37 0 L 37 21 L 0.398438 21 Z M 0.398438 0 " clip-rule="nonzero"/></clipPath><clipPath id="7bb5e6b4bf"><path d="M 0.09375 3.171875 L 35.65625 -0.484375 L 37.558594 18.019531 L 1.996094 21.675781 Z M 0.09375 3.171875 " clip-rule="nonzero"/></clipPath><clipPath id="3f15737f97"><path d="M 27.382812 0.363281 C 31.929688 -0.101562 36.039062 3.660156 36.5625 8.769531 C 37.089844 13.882812 33.832031 18.402344 29.285156 18.871094 L 10.222656 20.828125 C 5.679688 21.296875 1.570312 17.53125 1.042969 12.421875 C 0.519531 7.3125 3.777344 2.792969 8.320312 2.324219 Z M 27.382812 0.363281 " clip-rule="nonzero"/></clipPath><clipPath id="28e6b911a7"><rect x="0" width="37" y="0" height="21"/></clipPath><clipPath id="941ef2d271"><path d="M 15.695312 44.609375 L 24.113281 44.609375 L 24.113281 53.191406 L 15.695312 53.191406 Z M 15.695312 44.609375 " clip-rule="nonzero"/></clipPath><clipPath id="a5d54bda1a"><path d="M 19.902344 44.609375 C 17.578125 44.609375 15.695312 46.527344 15.695312 48.890625 C 15.695312 51.257812 17.578125 53.175781 19.902344 53.175781 C 22.230469 53.175781 24.113281 51.257812 24.113281 48.890625 C 24.113281 46.527344 22.230469 44.609375 19.902344 44.609375 Z M 19.902344 44.609375 " clip-rule="nonzero"/></clipPath><clipPath id="c7452d8e6a"><path d="M 0.695312 0.609375 L 9.113281 0.609375 L 9.113281 9.191406 L 0.695312 9.191406 Z M 0.695312 0.609375 " clip-rule="nonzero"/></clipPath><clipPath id="4e0ca4a834"><path d="M 4.902344 0.609375 C 2.578125 0.609375 0.695312 2.527344 0.695312 4.890625 C 0.695312 7.257812 2.578125 9.175781 4.902344 9.175781 C 7.230469 9.175781 9.113281 7.257812 9.113281 4.890625 C 9.113281 2.527344 7.230469 0.609375 4.902344 0.609375 Z M 4.902344 0.609375 " clip-rule="nonzero"/></clipPath><clipPath id="2af8dfe84f"><rect x="0" width="10" y="0" height="10"/></clipPath><clipPath id="aecfde8037"><path d="M 52.921875 44.609375 L 61.339844 44.609375 L 61.339844 53.191406 L 52.921875 53.191406 Z M 52.921875 44.609375 " clip-rule="nonzero"/></clipPath><clipPath id="bc0cabf857"><path d="M 57.132812 44.609375 C 54.808594 44.609375 52.921875 46.527344 52.921875 48.890625 C 52.921875 51.257812 54.808594 53.175781 57.132812 53.175781 C 59.457031 53.175781 61.339844 51.257812 61.339844 48.890625 C 61.339844 46.527344 59.457031 44.609375 57.132812 44.609375 Z M 57.132812 44.609375 " clip-rule="nonzero"/></clipPath><clipPath id="3a883a3c7e"><path d="M 0.921875 0.609375 L 9.339844 0.609375 L 9.339844 9.191406 L 0.921875 9.191406 Z M 0.921875 0.609375 " clip-rule="nonzero"/></clipPath><clipPath id="5bbecdcc45"><path d="M 5.132812 0.609375 C 2.808594 0.609375 0.921875 2.527344 0.921875 4.890625 C 0.921875 7.257812 2.808594 9.175781 5.132812 9.175781 C 7.457031 9.175781 9.339844 7.257812 9.339844 4.890625 C 9.339844 2.527344 7.457031 0.609375 5.132812 0.609375 Z M 5.132812 0.609375 " clip-rule="nonzero"/></clipPath><clipPath id="02b32286af"><rect x="0" width="10" y="0" height="10"/></clipPath><clipPath id="1ba50e1a52"><path d="M 20 22 L 44 22 L 44 32 L 20 32 Z M 20 22 " clip-rule="nonzero"/></clipPath><clipPath id="c12cc59fb7"><path d="M 19.90625 24.117188 L 43.296875 21.710938 L 44.082031 29.359375 L 20.691406 31.765625 Z M 19.90625 24.117188 " clip-rule="nonzero"/></clipPath><clipPath id="cce3d71d31"><path d="M 38.9375 22.160156 C 41.339844 21.914062 43.464844 23.425781 43.679688 25.539062 C 43.898438 27.648438 42.125 29.5625 39.726562 29.808594 L 25.039062 31.320312 C 22.636719 31.566406 20.515625 30.054688 20.296875 27.941406 C 20.082031 25.828125 21.851562 23.917969 24.253906 23.671875 Z M 38.9375 22.160156 " clip-rule="nonzero"/></clipPath><clipPath id="14ec9e5467"><path d="M 0 0 L 23.921875 0 L 23.921875 9.679688 L 0 9.679688 Z M 0 0 " clip-rule="nonzero"/></clipPath><clipPath id="3f97f96ef8"><path d="M -0.09375 2.117188 L 23.296875 -0.289062 L 24.082031 7.359375 L 0.691406 9.765625 Z M -0.09375 2.117188 " clip-rule="nonzero"/></clipPath><clipPath id="d452fa289a"><path d="M 18.9375 0.160156 C 21.339844 -0.0859375 23.464844 1.425781 23.679688 3.539062 C 23.898438 5.648438 22.125 7.5625 19.726562 7.808594 L 5.039062 9.320312 C 2.636719 9.566406 0.515625 8.054688 0.296875 5.941406 C 0.0820312 3.828125 1.851562 1.917969 4.253906 1.671875 Z M 18.9375 0.160156 " clip-rule="nonzero"/></clipPath><clipPath id="41010bac01"><rect x="0" width="24" y="0" height="10"/></clipPath></defs><g clip-path="url(#68d15ac148)"><g clip-path="url(#6b7a5a487c)"><g transform="matrix(1, 0, 0, 1, 2, 30)"><g clip-path="url(#a2babe1a1c)"><g clip-path="url(#22906d46f2)"><g clip-path="url(#a61d1a6ef2)"><path fill="#ff3131" d="M 0.308594 0.289062 L 70.722656 0.289062 L 70.722656 18.890625 L 0.308594 18.890625 Z M 0.308594 0.289062 " fill-opacity="1" fill-rule="nonzero"/></g></g></g></g></g></g><g clip-path="url(#f223ad8b73)"><g clip-path="url(#41ea590f60)"><g transform="matrix(1, 0, 0, 1, 13, 42)"><g clip-path="url(#26c025b98c)"><g clip-path="url(#c174d28f91)"><g clip-path="url(#e1a7772021)"><path fill="#000000" d="M 0.429688 0.300781 L 13.378906 0.300781 L 13.378906 13.503906 L 0.429688 13.503906 Z M 0.429688 0.300781 " fill-opacity="1" fill-rule="nonzero"/></g></g></g></g></g></g><g clip-path="url(#4757f7bbd5)"><g clip-path="url(#3e6b30c5dc)"><g transform="matrix(1, 0, 0, 1, 50, 42)"><g clip-path="url(#16cb6e117a)"><g clip-path="url(#e561743f0c)"><g clip-path="url(#d34fc6db79)"><path fill="#000000" d="M 0.65625 0.300781 L 13.609375 0.300781 L 13.609375 13.503906 L 0.65625 13.503906 Z M 0.65625 0.300781 " fill-opacity="1" fill-rule="nonzero"/></g></g></g></g></g></g><g clip-path="url(#6aeb37c16a)"><g clip-path="url(#5f41cc2182)"><g clip-path="url(#adc6be0bda)"><g transform="matrix(1, 0, 0, 1, 14, 20)"><g clip-path="url(#28e6b911a7)"><g clip-path="url(#a1e712b194)"><g clip-path="url(#7bb5e6b4bf)"><g clip-path="url(#3f15737f97)"><path fill="#ff3131" d="M 0.09375 3.171875 L 35.585938 -0.480469 L 37.488281 18.027344 L 1.996094 21.675781 Z M 0.09375 3.171875 " fill-opacity="1" fill-rule="nonzero"/></g></g></g></g></g></g></g></g><g clip-path="url(#941ef2d271)"><g clip-path="url(#a5d54bda1a)"><g transform="matrix(1, 0, 0, 1, 15, 44)"><g clip-path="url(#2af8dfe84f)"><g clip-path="url(#c7452d8e6a)"><g clip-path="url(#4e0ca4a834)"><path fill="#ffffff" d="M 0.695312 0.609375 L 9.113281 0.609375 L 9.113281 9.191406 L 0.695312 9.191406 Z M 0.695312 0.609375 " fill-opacity="1" fill-rule="nonzero"/></g></g></g></g></g></g><g clip-path="url(#aecfde8037)"><g clip-path="url(#bc0cabf857)"><g transform="matrix(1, 0, 0, 1, 52, 44)"><g clip-path="url(#02b32286af)"><g clip-path="url(#3a883a3c7e)"><g clip-path="url(#5bbecdcc45)"><path fill="#ffffff" d="M 0.921875 0.609375 L 9.339844 0.609375 L 9.339844 9.191406 L 0.921875 9.191406 Z M 0.921875 0.609375 " fill-opacity="1" fill-rule="nonzero"/></g></g></g></g></g></g><g clip-path="url(#1ba50e1a52)"><g clip-path="url(#c12cc59fb7)"><g clip-path="url(#cce3d71d31)"><g transform="matrix(1, 0, 0, 1, 20, 22)"><g clip-path="url(#41010bac01)"><g clip-path="url(#14ec9e5467)"><g clip-path="url(#3f97f96ef8)"><g clip-path="url(#d452fa289a)"><path fill="#ffffff" d="M -0.09375 2.117188 L 23.296875 -0.289062 L 24.082031 7.359375 L 0.691406 9.765625 Z M -0.09375 2.117188 " fill-opacity="1" fill-rule="nonzero"/></g></g></g></g></g></g></g></g></svg>